HIERARCHY
ROOT Hips
{
  OFFSET 6.30346 96.4372 -60.166
  CHANNELS 6 Xposition Yposition Zposition Zrotation Xrotation Yrotation
  JOINT RightUpLeg
  {
    OFFSET -8.9458 -8.66707 0.101652
    CHANNELS 3 Zrotation Xrotation Yrotation
    JOINT RightLeg
    {
      OFFSET 0 -44.4227 1.3727
      CHANNELS 3 Zrotation Xrotation Yrotation
      JOINT RightFoot
      {
        OFFSET 0.253549 -42.0924 -1.46059
        CHANNELS 3 Zrotation Xrotation Yrotation
        JOINT RightToes
        {
          OFFSET 0.04 -4.41509 8.4991
          CHANNELS 3 Zrotation Xrotation Yrotation
          End Site
          {
            OFFSET -0.08 -0.137448 9.77979
          }
        }
      }
    }
  }
  JOINT Spine
  {
    OFFSET 0 11.8905 0
    CHANNELS 3 Zrotation Xrotation Yrotation
    JOINT Spine1
    {
      OFFSET 0 25.6574 0.127663
      CHANNELS 3 Zrotation Xrotation Yrotation
      JOINT HEad
      {
        OFFSET 0 8.73416 0.011341
        CHANNELS 3 Zrotation Xrotation Yrotation
        End Site
        {
          OFFSET -0.29 12.7742 2.51395
        }
      }
      JOINT LeftShoulder1
      {
        OFFSET 8.99 -0.362252 -0.22
        CHANNELS 3 Zrotation Xrotation Yrotation
        JOINT LeftArm
        {
          OFFSET 10.2827 -0.00338 0.322123
          CHANNELS 3 Zrotation Xrotation Yrotation
          JOINT LeftForeArm
          {
            OFFSET 32.7669 0.099144 -1.42434
            CHANNELS 3 Zrotation Xrotation Yrotation
            JOINT LeftHand
            {
              OFFSET 27.5643 0.085362 1.02216
              CHANNELS 3 Zrotation Xrotation Yrotation
              End Site
              {
                OFFSET 16.7443 -0.6 1.50291
              }
            }
          }
        }
      }
      JOINT RightShoulder
      {
        OFFSET -8.99 -0.362252 -0.22
        CHANNELS 3 Zrotation Xrotation Yrotation
        JOINT RightArm
        {
          OFFSET -10.2827 -0.00338 0.322123
          CHANNELS 3 Zrotation Xrotation Yrotation
          JOINT RightForeArm
          {
            OFFSET -32.8971 0.099144 -1.42434
            CHANNELS 3 Zrotation Xrotation Yrotation
            JOINT RightHand
            {
              OFFSET -27.4921 0.085362 1.02216
              CHANNELS 3 Zrotation Xrotation Yrotation
              End Site
              {
                OFFSET -16.6312 -0.6 1.50291
              }
            }
          }
        }
      }
    }
  }
  JOINT LeftUpLeg
  {
    OFFSET 8.9458 -8.66707 0.101652
    CHANNELS 3 Zrotation Xrotation Yrotation
    JOINT LeftLeg
    {
      OFFSET 0 -44.4227 1.3727
      CHANNELS 3 Zrotation Xrotation Yrotation
      JOINT LeftFoot
      {
        OFFSET -0.253549 -42.0924 -1.46059
        CHANNELS 3 Zrotation Xrotation Yrotation
        JOINT LeftToes
        {
          OFFSET -0.04 -4.41509 8.4991
          CHANNELS 3 Zrotation Xrotation Yrotation
          End Site
          {
            OFFSET 0.08 -0.047448 9.77979
          }
        }
      }
    }
  }
}
MOTION
Frames:	12
Frame Time:	0.0166667
-57.7422 85.1137 -29.0842 -8.60633 -6.28771 -78.6175 -25.4431 -14.422 5.46968 19.8382 52.7583 -25.2504 14.8886 26.8773 -4.44798 -89.7839 -43.0843 -38.6461 2.70089 10.2529 1.48116 -12.9108 22.2319 4.94605 -1.39003 -13.4116 -20.9892 -1.59028e-015 -1.19271e-015 -0 -67.6234 -11.1801 -88.3802 26.9169 28.0671 -115.714 3.01881 10.2648 22.9 9.69825 0.392587 0.172339 6.16649 -16.9629 2.20849 -20.3207 -14.9697 33.6091 -7.03816 9.18822 8.72777 23.8397 -17.5553 -8.69482 0.907757 3.38998 -10.1006 -39.0791 29.4078 12.8867 14.1583 -21.054 -1.10338 
-53.9205 85.3311 -31.1988 -8.23877 -7.22743 -79.8263 -24.4497 -18.1659 5.61537 16.2107 52.971 -26.1705 14.8279 31.0516 -4.95754 -94.8934 -43.7909 -41.3628 1.36668 11.1845 2.01759 -13.5376 23.2852 6.29433 -2.38245 -15.8068 -22.0811 -3.97252e-031 3.57812e-015 6.36111e-015 -70.8105 -12.6868 -86.1387 25.0815 29.1385 -114.697 3.02832 10.2569 22.4377 5.2921 0.546778 2.73696 1.62191 -23.9031 2.83318 -15.3747 -8.63429 46.3562 -5.41079 9.35296 9.20206 23.4405 -16.7839 -7.39049 -0.300718 4.34736 -7.55103 -36.6767 30.8642 12.5131 16.406 -24.4738 -1.55473 
-50.3453 85.6261 -33.3529 -8.06842 -7.47264 -80.7466 -22.2844 -20.9979 5.92168 12.0407 52.3132 -26.3611 13.9536 34.7051 -5.09718 -98.5859 -44.1459 -43.3953 0.118059 12.0502 1.91709 -13.5435 24.4553 6.3467 -2.31572 -17.9624 -22.0596 -1.59028e-015 5.56597e-015 1.59028e-015 -74.568 -13.7984 -83.9847 23.5176 29.523 -115.31 3.00792 10.2546 22.4795 1.03491 0.518743 5.41806 -0.0338187 -33.9679 5.1178 -12.5467 0.867344 62.1835 -1.24791 9.84637 7.77655 23.6649 -17.9776 -5.93931 -2.01374 11.1133 -3.398 -29.881 32.5858 10.513 21.5029 -31.1691 -0.223557 
-47.1964 85.8375 -35.2828 -8.09867 -7.11107 -81.1142 -19.6301 -22.7224 5.99896 8.30501 51.0557 -26.1672 12.101 37.07 -4.64911 -100.286 -44.2299 -44.3787 -0.553834 12.7189 1.3834 -12.9545 25.479 5.33368 -0.971006 -19.6159 -21.0393 1.59028e-015 0 -1.59028e-015 -77.8734 -14.463 -82.189 22.6575 29.0342 -117.476 2.71638 10.2172 22.9639 -2.52484 0.351142 8.06499 3.21953 -44.1181 10.1635 -13.5341 10.4621 77.537 3.6952 10.2852 5.76594 24.484 -19.4083 -4.67745 -3.79446 19.8879 3.01051 -19.6266 34.9171 7.15942 28.9569 -38.901 3.82613 
-44.3934 86.1494 -37.1214 -8.09717 -6.40254 -80.6282 -17.0419 -23.5572 5.67169 5.57509 49.1323 -26.0701 10.0501 38.4571 -3.9565 -100.209 -44.4108 -44.1711 -0.979899 13.2103 0.627205 -12.0148 26.2709 3.73562 1.36283 -20.5105 -19.5946 -3.18055e-015 1.59028e-015 -1.59028e-015 -79.7707 -14.3198 -81.0533 22.8346 27.5349 -120.607 1.77501 10.0745 23.9965 -4.78936 0.159612 10.3257 12.2613 -51.6741 18.7919 -16.324 17.4384 91.1809 7.98726 10.5988 4.96859 25.5946 -19.9884 -4.0433 -5.41022 27.5261 11.3147 -7.63158 37.3833 2.78313 37.5274 -45.1373 10.2329 
-41.8307 86.6049 -38.8685 -8.0434 -5.67113 -79.2672 -15.0873 -23.8517 5.12011 4.34513 46.8894 -26.1684 8.98138 39.0168 -3.56317 -98.2505 -45.1309 -42.2875 -1.37833 13.6176 -0.112593 -10.9446 26.9003 2.05796 3.98694 -20.6765 -18.4876 4.77083e-015 -1.59028e-015 -3.18055e-015 -79.9054 -13.106 -80.7538 24.1132 25.1229 -123.879 0.0559773 9.77137 25.5604 -5.31864 0.0992539 11.7235 24.8825 -54.982 29.4572 -18.6012 21.7217 102.324 12.2058 10.9248 4.84503 26.5557 -19.8577 -4.51255 -7.06634 33.9362 20.226 3.63062 38.5872 -1.73151 45.1426 -48.8726 16.8022 
-39.3973 87.2283 -40.5316 -8.01635 -5.08364 -77.2037 -13.9567 -23.798 4.54658 4.62463 44.534 -26.2974 9.24264 38.6795 -3.64442 -93.7788 -46.4214 -38.0898 -1.76861 13.97 -0.649793 -9.79484 27.439 0.640622 6.20251 -20.476 -18.2216 1.10348e-032 3.97569e-016 -1.59028e-015 -78.625 -10.9567 -81.2896 26.2404 22.2925 -126.582 -2.18123 9.31146 27.3258 -4.00701 0.256156 11.8919 35.0382 -53.3891 37.3309 -19.5616 22.9712 110.269 17.8635 11.1425 3.38355 27.193 -19.0798 -6.21888 -9.17351 39.1252 28.3807 11.8669 38.5878 -5.10382 50.2974 -50.7578 21.4062 
-37.0386 87.9791 -42.0791 -8.02099 -4.58731 -74.6816 -13.4597 -23.518 3.85535 5.69055 42.0985 -26.0246 10.4721 37.4726 -4.03997 -86.4922 -47.6848 -31.4793 -1.95509 14.2031 -0.948457 -8.47804 27.8296 -0.414999 7.62403 -20.2844 -18.7683 4.77083e-015 7.95139e-016 -0 -76.6421 -8.35646 -82.4562 28.7212 19.8052 -128.353 -4.40273 8.79502 28.8234 -1.10193 0.564688 10.7185 39.1105 -48.2754 39.8572 -19.5731 20.9976 115.222 25.1748 10.8014 -0.34112 27.5908 -17.7824 -8.69691 -11.7743 43.1936 34.6359 16.4453 38.0818 -6.91488 52.563 -51.5426 23.3233 
-34.7277 88.7701 -43.4488 -7.92473 -4.02731 -71.9513 -13.2779 -23.2608 2.74748 6.50689 39.6275 -24.8331 12.467 35.7995 -4.65686 -77.1748 -48.1951 -23.243 -1.80303 14.2358 -1.09421 -6.98712 27.9125 -1.1785 8.2198 -20.1865 -19.6857 3.18055e-015 1.19271e-015 1.59028e-015 -74.5554 -5.87153 -83.8752 30.9605 18.2966 -129.142 -6.07664 8.37748 29.7467 2.98001 0.844984 8.32152 40.4833 -43.9167 39.8931 -19.6164 19.1316 119.329 32.0261 9.73861 -4.88057 27.9225 -16.1846 -11.0552 -14.3188 46.3352 38.3322 18.1261 37.5042 -7.50464 52.176 -51.4878 22.8881 
-32.4325 89.5668 -44.6339 -7.56895 -3.32174 -69.2559 -13.2456 -23.2779 1.09232 6.53186 37.1128 -22.5249 15.3185 34.1549 -5.53746 -67.1387 -47.5691 -14.5814 -1.43614 14.0275 -1.18535 -5.48395 27.5621 -1.7709 8.2152 -20.0129 -20.4838 -3.18055e-015 3.18055e-015 1.59028e-015 -72.6473 -3.92348 -85.1429 32.429 18.0262 -129.029 -6.89518 8.17496 30.0199 7.74224 0.899116 5.01341 40.2094 -40.6421 38.7856 -19.7651 17.6061 122.464 36.6387 8.4478 -8.67068 28.2965 -14.375 -12.4902 -16.0202 48.5733 39.5801 18.3211 37.0368 -7.50129 50.023 -50.7089 21.1 
-30.1085 90.3362 -45.6526 -6.88833 -2.49641 -66.7965 -13.4586 -23.7375 -0.868439 6.07752 34.6054 -19.4458 18.9466 32.6784 -6.64568 -57.3895 -45.6903 -6.56196 -1.09043 13.6088 -1.27804 -4.21161 26.7986 -2.28811 7.95327 -19.5906 -20.8861 3.18055e-015 -7.95139e-016 -3.18055e-015 -70.9816 -2.6836 -85.9834 32.8082 18.8728 -128.108 -6.84085 8.20979 29.6931 12.5113 0.624825 1.36119 39.0588 -38.3801 37.25 -19.6736 16.8407 124.391 37.8677 7.56286 -11.0672 28.7322 -12.362 -12.6654 -16.4847 49.8928 39.2434 18.4165 36.7791 -7.49399 47.4749 -49.5385 19.2349 
-27.7218 91.0121 -46.5267 -5.94725 -1.59705 -64.6556 -14.1095 -24.7023 -2.68355 5.92189 32.3702 -16.2949 22.8349 31.193 -7.75761 -48.6239 -42.6623 -0.0230012 -0.873541 13.055 -1.41816 -3.29245 25.763 -2.79587 7.7602 -18.9161 -20.8271 -3.18055e-015 -2.38542e-015 -0 -69.5494 -2.09538 -86.2856 32.0546 20.4224 -126.52 -6.1557 8.41211 28.9084 16.5539 0.115332 -1.92005 37.6217 -36.9408 35.4043 -19.0556 17.0318 125.111 35.4719 7.40447 -12.0333 29.2781 -10.1214 -11.7853 -16.0032 50.2073 38.5438 19.2785 37.0094 -7.88191 45.9904 -48.6783 18.3569 
